<svg width="904" height="749" viewBox="0 0 904 749" fill="none" xmlns="http://www.w3.org/2000/svg">
<g id="hello 1" clip-path="url(#clip0)">
<g id="Ranka">
<path id="Ranka_2" d="M438.053 276L427 321.328C428.157 322.557 429.587 323.495 431.175 324.067C432.762 324.639 434.462 324.829 436.137 324.621C437.811 324.413 439.413 323.813 440.812 322.87C442.212 321.927 443.369 320.668 444.191 319.194C467.959 276.551 481.285 252.643 505.053 210L488.053 204L438.053 276Z" fill="#6C63FF"/>
<path id="delnas" d="M488 203.955C488 203.955 501 164.955 510 175.955C519 186.955 505 209.955 505 209.955L488 203.955Z" fill="#FDA57D"/>
</g>
<g id="Group 2">
<path id="Ranka_3" d="M372 263.127L426.947 321.456C428.104 322.684 429.534 323.622 431.122 324.194C432.709 324.766 434.409 324.956 436.084 324.748C437.758 324.54 439.36 323.941 440.76 322.998C440.76 322.998 443.316 320.795 444.138 319.321L440.76 322.998L426.947 321.456L431.122 324.194L438 276.127C438 276.127 344.133 178.291 331 183.127C317.867 187.964 372 263.127 372 263.127Z" fill="#6C63FF"/>
<g id="Group 1">
<path id="Vector" d="M135.273 601.895C135.273 647.134 108.378 662.931 75.205 662.931C74.4326 662.931 73.6644 662.923 72.9005 662.902C71.3641 662.869 69.8403 662.802 68.3373 662.693C38.3952 660.577 15.1329 643.965 15.1329 601.895C15.1329 558.359 70.7587 503.422 74.9545 499.343L74.9628 499.339C75.1215 499.181 75.205 499.101 75.205 499.101C75.205 499.101 135.273 556.652 135.273 601.895Z" fill="#3F3D56"/>
<path id="Vector_2" d="M73.0132 656.009L94.9855 625.312L72.9589 659.378L72.9005 662.902C71.3641 662.869 69.8403 662.802 68.3373 662.693L70.7045 617.434L70.6877 617.083L70.7295 617.016L70.9508 612.741L48.8699 578.586L71.0176 609.535L71.0719 610.441L72.8629 576.244L53.9591 540.954L73.0925 570.237L74.9545 499.343L74.9628 499.101V499.339L74.6538 555.245L93.4699 533.081L74.5745 560.059L74.0777 590.677L91.6497 561.294L74.0026 595.186L73.7271 612.207L99.2355 571.306L73.6311 618.148L73.0132 656.009Z" fill="#F2F2F2"/>
<g id="Group" opacity="0.7">
<path id="Vector_3" opacity="0.7" d="M831.984 284.805V273.91H777.509V324.3C777.509 327.117 778.628 329.819 780.62 331.811C782.612 333.803 785.314 334.922 788.132 334.922H821.362C824.179 334.922 826.881 333.803 828.873 331.811C830.865 329.819 831.984 327.117 831.984 324.3V313.132C835.741 313.132 839.343 311.64 842 308.984C844.656 306.328 846.148 302.725 846.148 298.969C846.148 295.212 844.656 291.61 842 288.953C839.343 286.297 835.741 284.805 831.984 284.805V284.805ZM831.984 307.685V290.253C834.296 290.253 836.513 291.171 838.148 292.805C839.782 294.44 840.7 296.657 840.7 298.969C840.7 301.28 839.782 303.497 838.148 305.132C836.513 306.766 834.296 307.685 831.984 307.685V307.685Z" fill="url(#paint0_linear)"/>
</g>
<path id="Vector_4" d="M830.232 286.51C827.674 286.51 825.174 287.269 823.047 288.69C820.92 290.111 819.263 292.13 818.284 294.493C817.305 296.856 817.049 299.457 817.548 301.965C818.047 304.474 819.279 306.778 821.087 308.587C822.896 310.395 825.2 311.627 827.709 312.126C830.217 312.625 832.818 312.369 835.181 311.39C837.544 310.411 839.563 308.754 840.984 306.627C842.405 304.5 843.164 302 843.164 299.442C843.164 296.012 841.801 292.723 839.376 290.298C836.951 287.873 833.661 286.51 830.232 286.51V286.51ZM830.232 307.4C828.658 307.4 827.119 306.934 825.81 306.059C824.502 305.185 823.482 303.942 822.879 302.488C822.277 301.034 822.119 299.433 822.426 297.89C822.733 296.346 823.491 294.928 824.604 293.815C825.717 292.702 827.135 291.944 828.679 291.637C830.223 291.33 831.823 291.488 833.277 292.09C834.731 292.692 835.974 293.712 836.849 295.021C837.723 296.33 838.19 297.868 838.19 299.442C838.19 301.553 837.351 303.577 835.859 305.07C834.367 306.562 832.342 307.4 830.232 307.4Z" fill="#6C63FF"/>
<path id="Vector_5" opacity="0.1" d="M830.232 286.51C827.674 286.51 825.174 287.269 823.047 288.69C820.92 290.111 819.263 292.13 818.284 294.493C817.305 296.856 817.049 299.457 817.548 301.965C818.047 304.474 819.279 306.778 821.087 308.587C822.896 310.395 825.2 311.627 827.709 312.126C830.217 312.625 832.818 312.369 835.181 311.39C837.544 310.411 839.563 308.754 840.984 306.627C842.405 304.5 843.164 302 843.164 299.442C843.164 296.012 841.801 292.723 839.376 290.298C836.951 287.873 833.661 286.51 830.232 286.51V286.51ZM830.232 307.4C828.658 307.4 827.119 306.934 825.81 306.059C824.502 305.185 823.482 303.942 822.879 302.488C822.277 301.034 822.119 299.433 822.426 297.89C822.733 296.346 823.491 294.928 824.604 293.815C825.717 292.702 827.135 291.944 828.679 291.637C830.223 291.33 831.823 291.488 833.277 292.09C834.731 292.692 835.974 293.712 836.849 295.021C837.723 296.33 838.19 297.868 838.19 299.442C838.19 301.553 837.351 303.577 835.859 305.07C834.367 306.562 832.342 307.4 830.232 307.4Z" fill="black"/>
<path id="Vector_6" d="M780.493 276.563H830.232V322.52C830.232 325.106 829.204 327.586 827.376 329.414C825.547 331.242 823.068 332.27 820.482 332.27H790.243C787.657 332.27 785.177 331.242 783.349 329.414C781.52 327.586 780.493 325.106 780.493 322.52V276.563Z" fill="#6C63FF"/>
<path id="Vector_7" opacity="0.1" d="M821.279 276.563V322.571C821.279 325.143 820.257 327.61 818.438 329.429C816.619 331.248 814.152 332.27 811.58 332.27H816.554C819.126 332.27 821.593 331.248 823.412 329.429C825.231 327.61 826.253 325.143 826.253 322.571V276.563H821.279Z" fill="black"/>
<path id="Vector_8" d="M790.308 239.481C789.883 239.494 789.466 239.601 789.086 239.794C788.706 239.987 788.374 240.261 788.112 240.596C787.459 241.779 788.642 243.112 789.721 243.925C791.714 245.427 793.815 246.901 795.17 248.997C796.524 251.093 796.95 254.017 795.469 256.026C793.535 258.648 788.921 259.212 788.475 262.44C788.188 264.512 789.98 266.28 791.795 267.32C796.275 269.886 802.051 270.571 805.296 274.587C806.638 271.827 809.641 270.231 812.634 269.549C815.627 268.868 818.737 268.919 821.772 268.457C822.267 268.447 822.754 268.321 823.192 268.089C823.63 267.856 824.007 267.524 824.293 267.119C825.141 265.398 822.723 263.333 823.558 261.604C824.193 260.289 826.059 260.391 827.421 259.864C829.64 259.007 830.554 256.152 829.925 253.858C829.295 251.564 827.517 249.772 825.646 248.302C820.606 244.342 814.545 242.012 808.416 240.337C805.565 239.558 802.218 238.336 799.257 238.218C796.398 238.104 793.138 238.997 790.308 239.481Z" fill="#EEEEEE"/>
<path id="Vector_9" d="M441.209 344.016L337.209 668.016" stroke="#E0E0E0" stroke-width="8" stroke-miterlimit="10"/>
<path id="Vector_10" opacity="0.7" d="M521.788 704.506C508.995 705.248 497.599 715.965 497.599 715.965L492.088 702.295L491.638 702.441C494.33 690.657 549.104 447.722 494.272 426.779C452.139 410.686 407.448 390.771 372.434 391.519V334.129H421.523V332.084H460.385C467.834 326.763 457.01 323.104 444.911 320.817C445.404 320.253 445.839 319.64 446.208 318.988L508.451 207.317C508.451 207.317 522.768 183.795 513.564 172.546C504.36 161.296 491.065 201.181 491.065 201.181L439.931 274.814C439.931 274.814 388.322 221.023 355.492 194.273C351.849 190.662 347.738 187.556 343.27 185.036C337.277 180.981 332.741 178.881 330.504 179.704C330.481 179.713 330.463 179.727 330.44 179.736C325.465 178.358 320.326 177.66 315.164 177.659H311.073V169.268C320.237 166.242 328.62 161.231 335.625 154.593C342.63 147.956 348.084 139.854 351.6 130.867C357.369 121.312 360.892 110.571 361.904 99.4548C362.916 88.3389 361.389 77.1384 357.439 66.6987C358.05 66.6266 358.637 66.4232 359.162 66.1025C361.014 64.9102 361.197 62.302 361.018 60.1066C360.347 52.7381 357.89 45.6441 353.861 39.438C349.832 33.232 344.353 28.1007 337.896 24.4877C332.714 21.6544 326.78 19.7022 322.959 15.1992C319.676 11.3299 318.296 5.91822 314.323 2.76113C309.604 -0.989543 302.785 -0.344755 296.994 1.32885C290.549 3.19365 284.443 6.07507 278.906 9.86441C272.641 14.1551 266.987 19.6675 259.775 22.0425C254.65 23.73 249.093 23.6963 243.935 25.2817C239.978 26.5358 236.368 28.6987 233.396 31.5975C230.424 34.4963 228.171 38.0505 226.819 41.9757C225.506 46.1926 225.009 50.6211 225.354 55.024C222.218 60.2664 219.75 65.8806 218.008 71.7358C217.623 71.9443 217.235 72.1482 216.852 72.3631L217.974 71.8589C214.062 85.0623 213.932 99.0982 217.599 112.372C221.265 125.645 228.581 137.624 238.716 146.948C246.724 157.373 257.682 165.15 270.166 169.268V179.419C261.259 181.34 252.762 184.82 245.066 189.699L245.055 189.686C245.055 189.686 244.402 190.089 243.285 190.841C243.173 190.916 243.061 190.992 242.95 191.067C235.382 196.203 210.024 214.971 210.88 235.25C210.847 236.03 210.852 236.812 210.894 237.596C209.509 243.457 208.808 249.458 208.805 255.48V402.649C208.785 418.911 214.25 434.704 224.316 447.475C202.975 452.259 189.374 459.493 189.374 467.589C189.481 468.267 189.481 468.957 189.374 469.635C189.374 484.037 232.414 495.713 285.506 495.713C291.925 495.713 298.196 495.541 304.263 495.215L364.253 543.779L268.121 698.204C268.121 698.204 236.417 722.749 260.962 730.93C285.506 739.112 335.617 745.248 335.617 745.248C335.617 745.248 343.799 730.93 332.549 724.794C321.3 718.658 305.96 721.726 305.96 721.726L308.005 709.454C308.005 709.454 474.702 566.278 439.931 517.19C433.279 507.798 426.627 498.108 419.917 488.569L446.159 490.961L452.13 715.718L452.877 715.474C451.378 719.89 440.776 753.214 464.276 747.575C489.434 741.538 535.209 720.243 535.209 720.243C535.209 720.243 534.581 703.765 521.788 704.506ZM421.523 317.766L372.434 303.515V261.519L425.788 318.156C423.165 317.893 421.523 317.766 421.523 317.766Z" fill="url(#paint1_linear)"/>
<path id="Vector_11" d="M290.209 171.016C329.974 171.016 362.209 138.781 362.209 99.0161C362.209 59.2516 329.974 27.0161 290.209 27.0161C250.445 27.0161 218.209 59.2516 218.209 99.0161C218.209 138.781 250.445 171.016 290.209 171.016Z" fill="black"/>
<path id="Vector_12" d="M267.209 466.016L186.209 676.016" stroke="#BDBDBD" stroke-width="5" stroke-miterlimit="10"/>
<path id="Vector_13" d="M307.209 466.016L388.209 676.016" stroke="#BDBDBD" stroke-width="5" stroke-miterlimit="10"/>
<path id="Vector_14" d="M287.209 493.016C339.124 493.016 381.209 481.599 381.209 467.516C381.209 453.433 339.124 442.016 287.209 442.016C235.294 442.016 193.209 453.433 193.209 467.516C193.209 481.599 235.294 493.016 287.209 493.016Z" fill="#B84733"/>
<path id="Vector_15" d="M287.209 491.016C339.124 491.016 381.209 479.599 381.209 465.516C381.209 451.433 339.124 440.016 287.209 440.016C235.294 440.016 193.209 451.433 193.209 465.516C193.209 479.599 235.294 491.016 287.209 491.016Z" fill="#F55F44"/>
<path id="Vector_16" d="M247.655 512.154L336.345 539.484" stroke="#BDBDBD" stroke-width="5" stroke-miterlimit="10"/>
<path id="Vector_17" d="M326.763 512.154L238.073 539.484" stroke="#BDBDBD" stroke-width="5" stroke-miterlimit="10"/>
<path id="Vector_18" d="M288.304 182.016H316.209C331.061 182.016 345.305 187.916 355.807 198.418C366.309 208.92 372.209 223.164 372.209 238.016V386.016H212.209V258.111C212.209 237.929 220.226 218.574 234.497 204.304C248.767 190.033 268.122 182.016 288.304 182.016V182.016Z" fill="#6C63FF"/>
<path id="Vector_19" d="M212.209 386.016H372.209V473.016H283.209C264.379 473.016 246.32 465.536 233.005 452.221C219.689 438.906 212.209 420.846 212.209 402.016V386.016V386.016Z" fill="#39447A"/>
<path id="Vector_20" opacity="0.05" d="M214.37 242.055L312.209 335.016H420.209V321.016L327.209 294.016L247.655 195.776C247.655 195.776 211.531 218.095 214.37 242.055Z" fill="black"/>
<path id="Vector_21" d="M214.37 240.055L312.209 333.016H420.209V319.016L327.209 292.016L247.655 193.776C247.655 193.776 211.531 216.095 214.37 240.055Z" fill="#6C63FF"/>
<path id="Vector_22" d="M420.209 319.016C420.209 319.016 472.209 323.016 458.209 333.016H420.209V319.016Z" fill="#FDA57D"/>
<path id="Vector_23" opacity="0.05" d="M212.209 386.016V390.683L372.209 391.016V386.016H212.209Z" fill="black"/>
<path id="Vector_24" d="M336.671 478.56L444.299 488.369L450.138 708.141L488.669 695.597C488.669 695.597 546.295 446.599 491.345 425.61C436.395 404.622 376.997 376.985 341.533 399.508C306.069 422.032 336.671 478.56 336.671 478.56Z" fill="#39447A"/>
<path id="Vector_25" opacity="0.1" d="M343.209 411.016C343.209 411.016 402.209 441.016 410.209 475.016Z" fill="black"/>
<path id="Vector_26" d="M280.21 472.016L364.209 540.016L270.209 691.016L309.209 702.016C309.209 702.016 472.209 562.016 438.209 514.016C404.209 466.016 370.209 410.016 328.209 409.016C286.209 408.016 280.21 472.016 280.21 472.016Z" fill="#39447A"/>
<path id="Vector_27" opacity="0.05" d="M412.209 251.016L433.209 287.016L438.209 277.016L412.209 251.016Z" fill="black"/>
<path id="Vector_28" d="M270.209 691.016C270.209 691.016 239.209 715.016 263.209 723.016C287.209 731.016 336.209 737.016 336.209 737.016C336.209 737.016 344.209 723.016 333.209 717.016C322.209 711.016 307.209 714.016 307.209 714.016L309.209 702.016L270.209 691.016Z" fill="#333333"/>
<path id="Vector_29" d="M451.032 707.431C451.032 707.431 437.415 745.195 462.014 739.291C486.614 733.388 531.374 712.566 531.374 712.566C531.374 712.566 530.759 696.453 518.25 697.179C505.742 697.904 494.598 708.383 494.598 708.383L489.209 695.016L451.032 707.431Z" fill="#333333"/>
<path id="Vector_30" d="M292.209 147.016H292.209C281.163 147.016 272.209 155.97 272.209 167.016V187.016C272.209 198.062 281.163 207.016 292.209 207.016H292.209C303.255 207.016 312.209 198.062 312.209 187.016V167.016C312.209 155.97 303.255 147.016 292.209 147.016Z" fill="#FDA57D"/>
<path id="Vector_31" opacity="0.05" d="M292.209 149.016C286.905 149.016 281.818 151.123 278.067 154.874C274.316 158.625 272.209 163.712 272.209 169.016V175.811C285.2 180.084 299.218 180.084 312.209 175.811V169.016C312.209 163.712 310.102 158.625 306.351 154.874C302.6 151.123 297.513 149.016 292.209 149.016Z" fill="black"/>
<path id="Vector_32" d="M292.209 177.016C327.555 177.016 356.209 148.362 356.209 113.016C356.209 77.6699 327.555 49.0161 292.209 49.0161C256.863 49.0161 228.209 77.6699 228.209 113.016C228.209 148.362 256.863 177.016 292.209 177.016Z" fill="#FDA57D"/>
<path id="Vector_33" opacity="0.05" d="M228.209 110.112C228.209 110.112 244.209 114.235 253.209 96.0504C262.209 77.8655 269.209 67.9465 306.209 78.6921C343.209 89.4377 350.652 90.7487 352.431 80.5875C353.646 73.644 340.489 56.7784 332.035 46.7931C327.911 41.9219 321.18 39.0161 313.987 39.0161H272.209L247.209 50.5883L228.209 67.12L224.209 89.4377L228.209 110.112Z" fill="black"/>
<path id="Vector_34" d="M228.209 108.112C228.209 108.112 244.209 112.235 253.209 94.0504C262.209 75.8655 269.209 65.9465 306.209 76.6921C343.209 87.4377 350.652 88.7487 352.431 78.5875C353.646 71.644 340.489 54.7784 332.035 44.7931C327.911 39.9219 321.18 37.0161 313.987 37.0161H272.209L247.209 48.5883L228.209 65.12L224.209 87.4377L228.209 108.112Z" fill="black"/>
<path id="Vector_35" d="M234.709 121.016C238.299 121.016 241.209 115.196 241.209 108.016C241.209 100.836 238.299 95.0161 234.709 95.0161C231.119 95.0161 228.209 100.836 228.209 108.016C228.209 115.196 231.119 121.016 234.709 121.016Z" fill="#FDA57D"/>
<path id="Vector_36" d="M230.063 74.5653C228.58 66.194 227.123 57.4035 229.823 49.3421C231.146 45.5039 233.349 42.0286 236.255 39.1941C239.161 36.3596 242.69 34.2446 246.56 33.0183C251.603 31.4681 257.038 31.5011 262.049 29.851C269.101 27.5286 274.629 22.1386 280.755 17.943C286.169 14.2376 292.14 11.4201 298.442 9.5967C304.105 7.96019 310.772 7.32969 315.387 10.9972C319.272 14.0843 320.621 19.3759 323.831 23.1594C327.567 27.5626 333.37 29.4714 338.437 32.242C344.75 35.7748 350.109 40.7923 354.048 46.8606C357.988 52.929 360.39 59.8656 361.047 67.0707C361.221 69.2175 361.042 71.7679 359.231 72.9337C358.106 73.5059 356.839 73.7373 355.584 73.5994C330.005 73.2338 304.396 72.8667 278.923 70.5186C271.004 69.7886 263.069 68.8664 255.122 69.1675C242.824 69.647 230.814 73.0356 220.078 79.0555" fill="black"/>
<path id="Vector_37" d="M119.301 645.267H30.7841C12.6779 645.267 -2 659.945 -2 678.051V678.051C-2 696.157 12.6779 710.835 30.7841 710.835H119.301C137.408 710.835 152.085 696.157 152.085 678.051C152.085 659.945 137.408 645.267 119.301 645.267Z" fill="#6C63FF"/>
<path id="Vector_38" d="M573.876 411.183C574.265 411.169 574.633 411.005 574.903 410.725C575.174 410.446 575.325 410.072 575.325 409.683C575.325 409.294 575.174 408.92 574.903 408.64C574.633 408.36 574.265 408.196 573.876 408.183C573.487 408.196 573.119 408.36 572.848 408.64C572.578 408.92 572.427 409.294 572.427 409.683C572.427 410.072 572.578 410.446 572.848 410.725C573.119 411.005 573.487 411.169 573.876 411.183Z" fill="url(#paint2_linear)"/>
<path id="Vector_39" d="M793.971 344.016L897.971 714.108" stroke="#E0E0E0" stroke-width="8" stroke-miterlimit="10"/>
<path id="Vector_40" d="M898.393 333.178H336.787V355.063H898.393V333.178Z" fill="#E0E0E0"/>
<path id="Vector_41" d="M560.709 328.016H481.709C478.119 328.016 475.209 330.926 475.209 334.516V334.516C475.209 338.106 478.119 341.016 481.709 341.016H560.709C564.299 341.016 567.209 338.106 567.209 334.516C567.209 330.926 564.299 328.016 560.709 328.016Z" fill="#535461"/>
<g id="Group_2" opacity="0.7">
<path id="Vector_42" opacity="0.7" d="M731.649 183.077H559.429C543.843 183.077 531.209 195.711 531.209 211.297V312.959C531.209 328.544 543.843 341.178 559.429 341.178H731.649C747.234 341.178 759.869 328.544 759.869 312.959V211.297C759.869 195.711 747.234 183.077 731.649 183.077Z" fill="url(#paint3_linear)"/>
</g>
<path id="Vector_43" d="M725.06 185.994H562.121C547.3 185.994 535.286 198.008 535.286 212.829V314.343C535.286 329.164 547.3 341.178 562.121 341.178H725.06C739.88 341.178 751.895 329.164 751.895 314.343V212.829C751.895 198.008 739.88 185.994 725.06 185.994Z" fill="#3E3F49"/>
<path id="Vector_44" d="M728.06 185.994H565.121C550.3 185.994 538.286 198.008 538.286 212.829V314.343C538.286 329.164 550.3 341.178 565.121 341.178H728.06C742.88 341.178 754.895 329.164 754.895 314.343V212.829C754.895 198.008 742.88 185.994 728.06 185.994Z" fill="#535461"/>
<path id="D S D" d="M604.444 248.872C605.548 248.872 606.579 248.833 607.538 248.755C608.508 248.677 609.495 248.638 610.499 248.638C614.781 248.638 617.954 249.686 620.017 251.783C622.091 253.868 623.128 256.985 623.128 261.133C623.128 263.453 622.821 265.51 622.208 267.305C621.606 269.09 620.742 270.578 619.615 271.772C618.5 272.954 617.128 273.846 615.5 274.448C613.883 275.039 612.071 275.312 610.064 275.268C609.685 275.256 609.256 275.234 608.776 275.201C608.308 275.178 607.828 275.151 607.337 275.117C606.847 275.084 606.356 275.056 605.865 275.033C605.375 275.011 604.923 275 604.511 275H598.723V273.06L601.399 272.558C601.656 272.513 601.851 272.407 601.985 272.24C602.13 272.073 602.202 271.866 602.202 271.621V252.301C602.202 252.078 602.135 251.888 602.001 251.732C601.868 251.565 601.695 251.459 601.483 251.415L598.723 250.863V248.872H604.444ZM606.802 272.809C607.215 272.92 607.767 273.004 608.458 273.06C609.15 273.104 609.768 273.121 610.315 273.11C612.791 273.054 614.714 272.173 616.086 270.467C617.469 268.75 618.16 265.884 618.16 261.869C618.16 258.156 617.48 255.368 616.119 253.505C614.77 251.643 612.668 250.712 609.813 250.712C609.144 250.712 608.542 250.751 608.007 250.829C607.482 250.907 607.081 250.952 606.802 250.963V272.809ZM654.527 267.891C654.527 268.828 654.349 269.753 653.992 270.668C653.635 271.582 653.077 272.402 652.319 273.127C651.572 273.851 650.602 274.437 649.409 274.883C648.215 275.329 646.793 275.552 645.143 275.552C643.392 275.552 641.786 275.335 640.326 274.9C638.876 274.454 637.677 273.968 636.729 273.444C636.685 272.329 636.696 271.175 636.763 269.982C636.841 268.777 636.958 267.657 637.114 266.62H639.79L640.426 270.684C640.459 270.896 640.521 271.103 640.61 271.303C640.699 271.504 640.85 271.699 641.062 271.889C641.463 272.29 642.043 272.658 642.801 272.993C643.571 273.327 644.429 273.495 645.377 273.495C646.827 273.495 647.942 273.127 648.723 272.391C649.503 271.643 649.894 270.645 649.894 269.396C649.894 268.627 649.749 267.958 649.459 267.389C649.169 266.82 648.767 266.313 648.254 265.867C647.741 265.421 647.122 265.008 646.398 264.629C645.684 264.25 644.909 263.86 644.073 263.458C643.236 263.046 642.4 262.616 641.563 262.17C640.727 261.713 639.98 261.183 639.322 260.581C638.664 259.979 638.123 259.271 637.699 258.457C637.287 257.632 637.081 256.661 637.081 255.546C637.081 254.52 637.27 253.572 637.649 252.703C638.028 251.822 638.586 251.069 639.322 250.444C640.058 249.809 640.984 249.312 642.099 248.956C643.214 248.588 644.502 248.404 645.963 248.404C647.223 248.404 648.489 248.532 649.76 248.788C651.042 249.045 652.146 249.379 653.072 249.792C653.15 250.896 653.161 251.994 653.105 253.087C653.049 254.169 652.944 255.212 652.787 256.215H650.195L649.509 252.669C649.464 252.424 649.386 252.201 649.275 252C649.174 251.788 649.018 251.593 648.806 251.415C648.461 251.136 647.987 250.902 647.385 250.712C646.782 250.511 646.141 250.411 645.461 250.411C644.167 250.411 643.169 250.74 642.467 251.398C641.775 252.045 641.43 252.931 641.43 254.057C641.43 254.771 641.563 255.39 641.831 255.914C642.099 256.438 642.483 256.912 642.985 257.336C643.498 257.76 644.123 258.172 644.859 258.574C645.606 258.964 646.448 259.388 647.385 259.845C648.299 260.291 649.185 260.771 650.044 261.284C650.914 261.785 651.678 262.349 652.336 262.973C652.994 263.598 653.523 264.311 653.925 265.114C654.326 265.917 654.527 266.843 654.527 267.891ZM673.174 248.872C674.278 248.872 675.31 248.833 676.269 248.755C677.239 248.677 678.226 248.638 679.229 248.638C683.512 248.638 686.684 249.686 688.747 251.783C690.821 253.868 691.858 256.985 691.858 261.133C691.858 263.453 691.552 265.51 690.938 267.305C690.336 269.09 689.472 270.578 688.346 271.772C687.231 272.954 685.859 273.846 684.231 274.448C682.614 275.039 680.802 275.312 678.794 275.268C678.415 275.256 677.986 275.234 677.506 275.201C677.038 275.178 676.559 275.151 676.068 275.117C675.577 275.084 675.087 275.056 674.596 275.033C674.105 275.011 673.654 275 673.241 275H667.453V273.06L670.13 272.558C670.386 272.513 670.581 272.407 670.715 272.24C670.86 272.073 670.933 271.866 670.933 271.621V252.301C670.933 252.078 670.866 251.888 670.732 251.732C670.598 251.565 670.425 251.459 670.213 251.415L667.453 250.863V248.872H673.174ZM675.533 272.809C675.945 272.92 676.497 273.004 677.189 273.06C677.88 273.104 678.499 273.121 679.045 273.11C681.521 273.054 683.445 272.173 684.816 270.467C686.199 268.75 686.89 265.884 686.89 261.869C686.89 258.156 686.21 255.368 684.85 253.505C683.5 251.643 681.398 250.712 678.544 250.712C677.874 250.712 677.272 250.751 676.737 250.829C676.213 250.907 675.811 250.952 675.533 250.963V272.809Z" fill="#4091BE"/>
</g>
</g>
</g>
<defs>
<linearGradient id="paint0_linear" x1="811.828" y1="334.922" x2="811.828" y2="273.91" gradientUnits="userSpaceOnUse">
<stop stop-color="#808080" stop-opacity="0.25"/>
<stop offset="0.53514" stop-color="#808080" stop-opacity="0.12"/>
<stop offset="1" stop-color="#808080" stop-opacity="0.1"/>
</linearGradient>
<linearGradient id="paint1_linear" x1="177981" y1="616610" x2="177981" y2="56783.9" gradientUnits="userSpaceOnUse">
<stop stop-color="#808080" stop-opacity="0.25"/>
<stop offset="0.53514" stop-color="#808080" stop-opacity="0.12"/>
<stop offset="1" stop-color="#808080" stop-opacity="0.1"/>
</linearGradient>
<linearGradient id="paint2_linear" x1="2675.36" y1="1869.41" x2="2675.36" y2="1860.41" gradientUnits="userSpaceOnUse">
<stop stop-color="#808080" stop-opacity="0.25"/>
<stop offset="0.53514" stop-color="#808080" stop-opacity="0.12"/>
<stop offset="1" stop-color="#808080" stop-opacity="0.1"/>
</linearGradient>
<linearGradient id="paint3_linear" x1="148597" y1="54123.8" x2="148597" y2="29127.8" gradientUnits="userSpaceOnUse">
<stop stop-color="#808080" stop-opacity="0.25"/>
<stop offset="0.53514" stop-color="#808080" stop-opacity="0.12"/>
<stop offset="1" stop-color="#808080" stop-opacity="0.1"/>
</linearGradient>
<clipPath id="clip0">
<rect width="903.822" height="748.215" fill="white"/>
</clipPath>
</defs>
</svg>
